<svg xmlns="http://www.w3.org/2000/svg"
shape-rendering="geometricPrecision"
width="4000" height="4000" viewBox="0 0 1024 1024">
  <metadata>null</metadata>

<path d="
M 47.789 360.549
C 47.95 359.952 47.855 360.26 48.081 359.626
C 49.238 358.335 51.676 358.821 53.239 358.838
C 57.827 358.89 62.417 358.867 67.005 358.869
C 81.506 358.878 96.007 358.796 110.507 358.81
C 114.341 358.814 118.174 358.824 122.008 358.848
C 122.901 358.854 125.677 359.38 126.378 358.978
C 125.646 351.07 127.368 342.402 129.472 334.819
C 138.453 302.449 167.24 277.356 200.993 274.473
C 212.213 273.514 223.319 275.182 233.968 278.722
C 258.347 286.826 277.782 307.742 285.652 332.007
C 287.649 338.166 289.1 344.779 289.664 351.236
C 289.891 353.834 289.631 356.461 289.865 359.048
C 308.04 358.357 326.313 358.879 344.505 358.825
C 349.006 358.812 353.506 358.781 358.006 358.771
C 359.748 358.767 361.897 358.279 363.156 359.742
C 364.427 361.218 363.729 364.677 363.725 366.496
C 363.711 372.846 363.973 379.284 363.685 385.62
C 372.291 384.916 380.664 383.821 389.372 384.478
C 423.361 387.041 456.498 400.598 484.109 420.341
C 485.065 421.859 482.964 424.476 482.177 425.714
C 479.299 430.24 476.876 435.107 474.27 439.795
C 465.637 455.326 457.215 470.976 448.462 486.441
C 446.107 490.601 443.785 494.778 441.445 498.947
C 440.535 500.567 439.512 503.283 437.866 504.267
C 436.651 504.438 434.997 502.93 433.999 502.325
C 430.682 500.311 427.405 498.225 423.95 496.445
C 414.908 491.786 405.71 487.821 395.538 486.641
C 389.529 485.944 382.806 486.456 377.644 489.933
C 372.149 493.636 368.504 501.402 371.927 507.694
C 373.837 511.205 377.483 514.016 380.698 516.271
C 401.863 531.117 426.083 541.072 447.514 555.537
C 457.817 562.492 466.892 570.79 474.326 580.791
C 495.002 608.607 497.294 646.393 485.796 678.309
C 482.937 685.696 479.264 692.647 474.824 699.228
C 449.471 736.809 400.382 750.76 357.153 748.901
C 348.699 748.538 340.143 747.795 331.819 746.222
C 319.258 743.848 307.488 740.035 295.611 735.378
C 290.33 733.307 285.397 729.736 280.02 728.049
C 271.416 731.578 262.817 734.827 253.724 736.959
C 247.203 738.488 240.604 739.306 233.969 740.092
C 224.176 741.251 213.859 740.413 204.01 740.382
C 186.851 740.328 169.629 740.567 152.65 737.684
C 120.342 732.196 89.43 715.096 70.396 687.954
C 58.305 670.714 51.196 651.115 48.643 630.248
C 47.514 621.023 47.663 611.754 47.669 602.482
C 47.679 589.989 47.784 577.496 47.761 565.003
C 47.681 521.17 47.858 477.336 47.783 433.503
C 47.755 416.835 47.786 400.168 47.827 383.5
C 47.846 375.886 47.39 368.148 47.789 360.549 Z
M 51.46 363.607
C 50.683 368.35 51.355 373.695 51.379 378.503
C 51.428 388.003 51.413 397.505 51.397 407.005
C 51.344 438.338 51.524 469.673 51.407 501.005
C 51.312 526.672 51.469 552.339 51.441 578.006
C 51.43 587.292 51.479 596.58 51.444 605.866
C 51.407 615.666 51.246 625.596 52.951 635.287
C 57.66 662.061 69.819 685.893 90.017 704.293
C 95.236 709.047 100.947 712.821 106.81 716.695
C 116.752 723.263 128.199 727.989 139.663 731.128
C 160.406 736.805 181.674 736.566 203.009 736.613
C 214.545 736.638 226.193 737.123 237.69 736.004
C 247.282 735.071 256.93 732.609 266.052 729.568
C 269.355 728.466 272.85 727.515 276.004 726.037
C 275.791 725.287 274.235 724.578 273.545 724.18
C 271.253 722.859 269.03 721.041 266.577 720.061
C 256.528 723.597 246.691 726.478 236.014 727.655
C 224.939 728.877 213.629 728.264 202.502 728.264
C 183.456 728.264 164.61 728.046 146.186 722.603
C 134.662 719.198 123.344 714.543 113.278 707.912
C 105.387 702.714 98.16 697.153 91.615 690.291
C 74.856 672.722 64.914 649.843 61.54 625.955
C 59.081 608.546 60.256 590.549 60.256 573.007
C 60.256 546.341 60.238 519.674 60.238 493.007
C 60.238 463.173 60.291 433.339 60.313 403.505
C 60.319 395.568 60.352 387.632 60.332 379.695
C 60.328 377.754 60.348 375.809 60.289 373.868
C 60.259 372.893 60.044 371.808 60.604 370.971
C 62.795 369.967 65.648 370.397 68.009 370.397
C 73.009 370.397 78.009 370.355 83.009 370.363
C 101.172 370.394 119.492 371.112 137.639 370.425
C 137.768 370.372 137.644 369.139 137.641 369.014
C 137.601 367.676 137.606 366.34 137.622 365.001
C 137.688 359.209 137.541 353.285 138.52 347.555
C 141.008 332.995 147.96 319.569 158.496 309.196
C 186.865 281.264 235.996 283.039 261.986 313.409
C 275.744 329.485 280.613 349.819 279.235 370.648
C 294.595 369.901 310.122 370.553 325.502 370.545
C 331.071 370.542 336.639 370.512 342.208 370.515
C 345.312 370.516 348.518 370.172 351.588 370.747
C 352.373 372.306 351.958 374.618 351.949 376.329
C 351.929 379.942 351.889 383.639 352.228 387.235
C 354.53 386.862 357.763 386.827 359.84 385.852
C 360.468 380.333 359.921 374.521 359.903 368.972
C 359.897 367.384 360.513 364.1 359.744 362.729
C 342.681 362.31 325.567 362.701 308.497 362.668
C 303.497 362.658 298.497 362.676 293.496 362.666
C 291.377 362.662 288.664 363.139 286.666 362.334
C 285.395 360.954 286.087 358.319 286.048 356.583
C 285.94 351.761 285.663 347.044 284.645 342.314
C 281.714 328.7 275.219 315.142 265.844 304.773
C 246.625 283.517 217.248 272.995 189.088 280.203
C 178.181 282.994 168.646 288.603 159.79 295.36
C 153.877 299.871 148.436 305.746 144.297 311.916
C 137.632 321.851 133.047 333.231 130.916 345.003
C 130.226 348.816 130.251 352.704 129.969 356.55
C 129.832 358.41 130.534 360.464 129.751 362.25
C 128.097 363.128 125.802 362.676 123.995 362.68
C 119.829 362.69 115.662 362.668 111.496 362.663
C 97.495 362.646 83.495 362.669 69.494 362.676
C 65.494 362.677 61.494 362.68 57.495 362.697
C 55.65 362.705 53.357 362.314 51.633 363.02
C 51.576 363.216 51.518 363.411 51.46 363.607 Z
M 63.976 493.12
C 63.623 509.269 63.977 525.464 64.055 541.617
C 64.113 553.411 63.827 565.217 64.056 577.004
C 64.362 592.758 62.686 608.841 64.939 624.507
C 68.717 650.786 80.418 675.095 100.058 693.213
C 105.195 697.953 111.057 701.953 116.938 705.699
C 126.018 711.483 136.324 715.948 146.662 718.919
C 155.138 721.356 163.856 723.099 172.641 723.929
C 182.212 724.834 191.91 724.491 201.511 724.46
C 222.051 724.392 242.853 725.407 262.335 717.753
C 262.711 717.078 260.705 716.069 260.212 715.745
C 258.241 714.448 256.338 713.016 254.411 711.652
C 253.589 711.071 252.609 710.06 251.54 710.154
C 249.486 710.335 247.346 711.36 245.327 711.82
C 242.443 712.478 239.384 712.754 236.449 713.095
C 225.056 714.419 213.451 713.769 202.001 713.744
C 189.882 713.717 177.57 714.178 165.581 712.113
C 137.784 707.327 110.484 692.325 94.03 669.028
C 84.442 655.454 78.149 639.881 75.566 623.468
C 74.318 615.539 74.423 607.497 74.43 599.5
C 74.438 589.833 74.467 580.165 74.451 570.498
C 74.372 523.833 74.426 477.167 74.364 430.502
C 74.346 417.503 74.337 404.503 74.388 391.504
C 74.403 387.503 74.41 383.502 74.394 379.502
C 74.388 377.897 74.805 375.732 74.332 374.21
C 71.086 374.452 67.555 374.422 64.307 374.328
C 63.841 377.618 64.191 381.172 64.175 384.495
C 64.142 391.163 64.125 397.83 64.119 404.497
C 64.099 424.498 64.1 444.499 64.081 464.5
C 64.075 470.833 64.099 477.166 64.087 483.499
C 64.081 486.566 64.561 490.115 63.976 493.12 Z
M 198.056 632.78
C 196.397 631.861 194.421 631.572 192.712 630.712
C 188.776 628.732 184.839 626.066 181.807 622.853
C 176.262 616.978 172.765 609.464 171.623 601.464
C 170.848 596.038 171.224 590.47 171.23 585.006
C 171.241 576.006 171.237 567.006 171.23 558.006
C 171.201 518.674 171.261 479.339 171.127 440.007
C 171.079 425.839 171.151 411.673 171.161 397.505
C 171.166 389.922 170.665 382.118 171.295 374.561
C 170.909 373.993 168.007 374.417 167.326 374.419
C 163.061 374.437 158.796 374.341 154.532 374.395
C 150.377 373.823 145.876 374.338 141.669 374.185
C 141.104 375.061 141.456 376.795 141.528 377.784
C 141.706 380.246 141.699 382.735 141.639 385.202
C 146.706 385.588 150.104 387.97 153.84 391.099
C 158.898 397.525 161.216 404.577 157.568 412.383
C 156.506 414.656 154.644 416.205 153.412 418.306
C 150.339 420.748 147.322 422.517 143.414 423.211
C 133.049 425.053 122.675 417.455 121.252 406.99
C 119.935 397.302 126.919 385.119 137.766 385.104
C 138.049 384.166 137.696 382.525 137.683 381.514
C 137.652 379.199 138.034 376.654 137.719 374.369
C 133.691 374.093 129.549 374.349 125.507 374.332
C 117.173 374.297 108.838 374.275 100.503 374.265
C 95.503 374.259 90.502 374.239 85.502 374.251
C 83.224 374.257 80.66 373.894 78.423 374.29
C 78.062 379.483 78.338 384.792 78.326 389.999
C 78.301 400.165 78.283 410.331 78.295 420.496
C 78.331 449.997 78.349 479.498 78.32 508.999
C 78.298 530.833 78.396 552.667 78.345 574.501
C 78.325 583.335 78.356 592.168 78.35 601.002
C 78.346 607.655 78.097 614.376 79.041 620.979
C 83.079 649.202 98.635 676.151 123.126 691.482
C 132.347 697.253 142.004 701.79 152.403 705.018
C 166.699 709.455 181.153 709.991 196.008 709.949
C 207.866 709.916 219.848 710.554 231.683 709.777
C 237.146 709.418 243.592 709.068 248.718 706.978
C 250.544 706.233 251.533 703.619 252.475 702.031
C 255.188 697.456 258.056 692.972 260.768 688.396
C 268.735 674.958 277.151 661.79 285.141 648.366
C 287.351 644.653 289.549 640.932 291.765 637.222
C 292.808 635.477 293.831 633.036 295.567 631.896
C 298.674 632.394 301.403 635.44 303.796 637.311
C 308.484 640.975 313.543 644.228 318.715 647.152
C 320.644 648.243 322.63 649.306 324.645 650.232
C 325.278 650.523 326.119 651.223 326.771 650.842
C 331.38 640.731 333.979 629.635 334.612 618.537
C 335.009 611.565 334.158 604.423 334.914 597.488
C 318.703 589.455 303.149 579.827 290.28 566.986
C 273.095 549.839 262.066 527.166 259.481 503.012
C 258.229 491.317 259.093 479.475 261.346 467.961
C 263.799 455.43 269.383 443.198 276.754 432.82
C 278.861 429.854 281.211 427.105 283.553 424.327
C 283.933 423.875 286.114 422.163 285.931 421.556
C 285.832 421.224 284.825 421.606 284.69 421.652
C 283.277 422.135 281.975 422.647 280.492 422.876
C 276.617 423.473 273.092 422.955 269.552 421.264
C 257.348 415.433 255.127 399.952 264.667 390.604
C 266.586 388.724 268.686 387.319 271.262 386.51
C 272.374 386.161 274.687 386.151 275.546 385.461
C 275.568 381.793 275.354 378.107 275.385 374.432
C 274.938 373.987 273.639 374.251 273 374.26
C 271.001 374.291 269.002 374.278 267.003 374.271
C 261.67 374.251 256.337 374.295 251.005 374.278
C 247.659 374.267 244.17 374.006 240.853 374.452
C 241.43 440.462 241.066 506.479 241.228 572.495
C 241.243 578.829 241.251 585.162 241.255 591.496
C 241.264 603.629 240.702 615.894 231.282 624.835
C 229.136 626.871 226.757 628.508 224.156 629.911
C 220.815 631.715 217.11 632.611 213.405 633.318
C 208.189 634.312 203.237 633.329 198.056 632.78 Z
M 125.43 400.573
C 124.755 403.687 125.072 407.06 126.196 410.03
C 126.839 411.725 127.853 413.287 129.058 414.634
C 138.006 424.63 155.717 417.97 155.366 404.398
C 155.312 402.317 154.883 400.141 154.017 398.242
C 152.997 396.006 151.491 394.067 149.607 392.49
C 147.293 390.554 144.797 389.428 141.787 389.149
C 141.661 392.584 142.148 396.238 141.668 399.631
C 140.827 400.649 139.091 400.916 138.144 399.945
C 136.617 397.026 137.988 392.394 137.744 389.199
C 131.131 389.888 127.502 394.668 125.43 400.573 Z
M 141.495 362.622
C 141.381 364.439 141.45 366.257 141.433 368.076
C 141.426 368.83 141.248 369.889 141.581 370.576
C 149.577 369.721 157.96 370.435 166.005 370.424
C 168.287 370.421 172.744 369.508 174.537 371.177
C 175.021 372.298 174.83 373.627 174.823 374.822
C 174.809 377.1 174.806 379.379 174.799 381.657
C 174.771 389.602 174.796 397.547 174.778 405.491
C 174.714 433.158 174.827 460.826 174.813 488.493
C 174.803 509.662 174.832 530.832 174.861 552.001
C 174.876 563.001 174.901 574.001 174.891 585.002
C 174.882 595.441 174.697 605.87 180.544 615.025
C 190.784 631.057 215.823 635.814 229.424 621.226
C 232.214 618.233 234.316 614.584 235.689 610.739
C 238.168 603.798 237.574 596.368 237.577 589.131
C 237.581 577.421 237.452 565.715 237.436 554.003
C 237.379 513.337 237.315 472.672 237.271 432.007
C 237.254 417.007 237.146 402.007 237.138 387.007
C 237.137 383.334 237.201 379.658 237.127 375.986
C 237.099 374.572 236.607 372.358 237.584 371.171
C 238.342 370.251 239.57 370.402 240.628 370.481
C 242.734 370.639 244.891 370.527 247.003 370.53
C 256.457 370.541 265.919 370.509 275.368 370.491
C 275.702 367.576 275.421 364.44 275.393 361.5
C 275.239 345.478 270.641 330.114 260.509 317.522
C 248.258 302.297 227.785 292.683 208.249 292.676
C 197.013 292.672 185.614 295.814 175.808 301.242
C 159.978 310.004 147.592 325.255 143.39 342.995
C 142.463 346.908 141.888 350.948 141.734 354.967
C 141.64 357.424 142.014 360.227 141.495 362.622 Z
M 373.652 518.729
C 371.95 517.338 369.635 516.449 367.749 515.297
C 363.282 512.568 359.023 509.56 355.667 505.498
C 348.972 497.394 349.436 485.298 357.239 478.131
C 361.627 474.102 367.264 472.137 373.042 471.099
C 388.658 468.296 405.142 473.911 418.681 481.294
C 422.52 483.387 426.364 485.604 429.873 488.218
C 430.111 488.311 430.343 487.619 430.423 487.45
C 430.927 486.39 431.456 485.352 432.026 484.324
C 434.468 479.925 436.854 475.476 439.434 471.154
C 446.24 459.754 452.372 447.962 459.025 436.475
C 461.837 431.622 464.587 426.722 467.267 421.795
C 468.302 419.892 469.678 418.112 470.544 416.126
C 446.102 401.377 419.383 390.432 390.631 388.347
C 371.084 386.929 351.384 390.069 332.851 396.205
C 317.847 401.173 302.861 409.224 291.704 420.619
C 282.19 430.337 273.94 441.989 269.07 454.749
C 256.816 486.86 262.153 525.21 282.79 552.658
C 288.419 560.146 295.054 567.159 302.47 572.907
C 304.712 574.645 307.329 577.615 310.03 578.537
C 315.013 583.624 322.708 586.806 328.923 590.083
C 340.2 596.031 351.447 602.042 362.606 608.206
C 371.044 612.867 380.948 618.608 385.377 627.624
C 387.461 631.865 389.001 636.353 389.014 641.128
C 389.037 649.564 384.078 657.401 376.615 661.252
C 372.636 663.305 367.483 664.075 363.048 664.066
C 338.675 664.017 315.356 651.409 296.853 636.493
C 294.474 639.097 292.764 642.636 290.972 645.663
C 287.711 651.172 284.348 656.619 281.077 662.122
C 272.236 677 262.585 691.479 254.031 706.508
C 257.608 710.082 262.403 712.865 266.637 715.602
C 274.486 720.676 282.462 725.382 290.932 729.359
C 328.831 747.156 374.172 751.056 414.125 737.881
C 428.412 733.17 441.884 726.713 453.474 716.992
C 462.255 709.628 469.956 700.989 475.762 691.082
C 492.823 661.97 494.013 623.05 477.853 593.313
C 469.057 577.127 454.952 563.762 439.092 554.572
C 424.4 546.058 409.787 537.589 394.794 529.603
C 389.45 526.756 384.102 523.979 378.679 521.287
C 377.023 520.465 375.412 519.3 373.652 518.729 Z
M 262.43 402.599
C 261.95 405.903 262.857 409.2 264.495 412.065
C 265.853 414.44 267.995 416.367 270.404 417.631
C 272.62 418.794 275.227 419.42 277.727 419.419
C 285.395 419.417 291.741 413.382 292.582 405.857
C 293.438 398.193 287.753 389.294 279.357 389.444
C 279.182 392.944 280.069 397.122 279.022 400.472
C 278.408 401.263 277.378 401.35 276.462 401.162
C 276.349 401.073 276.235 400.985 276.122 400.897
C 274.358 397.45 275.851 393.048 275.559 389.358
C 268.216 390.307 264.066 395.824 262.43 402.599 Z
M 279.299 374.217
C 279.192 378.019 279.195 381.831 279.257 385.634
C 288.722 384.609 296.698 395.462 296.613 404.014
C 296.579 407.423 294.878 410.01 294.139 413.18
C 294.837 413.504 297.731 410.58 298.363 410.111
C 302.434 407.097 306.539 404.183 310.971 401.706
C 318.91 397.269 327.29 393.929 335.947 391.197
C 340.005 389.917 344.298 389.245 348.307 387.849
C 348.725 386.702 348.35 384.968 348.321 383.744
C 348.249 380.668 347.913 377.34 348.223 374.288
C 332.158 374.488 316.069 374.227 300.001 374.223
C 293.172 374.222 286.098 373.623 279.299 374.217 Z
M 330.326 652.06
C 330.261 652.278 330.195 652.495 330.13 652.712
C 332.458 653.235 334.474 654.91 336.824 655.393
C 340.268 644.976 344.061 635.083 345.748 624.156
C 346.807 617.301 346.132 610.391 346.411 603.497
C 344.711 602.178 342.536 601.474 340.66 600.436
C 340.417 600.301 338.897 599.384 338.771 599.415
C 338.156 599.568 338.365 602.756 338.373 603.247
C 338.446 607.496 338.415 611.744 338.343 615.992
C 338.171 626.084 336.146 636.246 332.845 645.757
C 332.049 647.879 331.384 650.049 330.326 652.06 Z
M 340.462 655.568
C 340.174 656.213 340.308 655.865 340.075 656.616
C 342.702 657.075 345.873 658.852 348.546 658.579
C 356.387 643.644 357.614 626.346 358.118 609.898
C 355.928 607.982 352.635 606.725 349.985 605.596
C 350.327 620.526 348.309 634.579 343.344 648.707
C 342.44 651.041 341.495 653.292 340.462 655.568 Z
M 352.378 658.555
C 352.079 659.227 352.125 658.888 352.199 659.564
C 363.026 661.14 376.792 661.318 382.976 650.439
C 383.938 648.745 384.554 646.922 384.95 645.019
C 385.439 642.672 385.533 640.432 385.176 638.056
C 384.75 635.228 383.726 632.454 382.396 629.93
C 378.993 623.468 373.306 619.074 367.234 615.257
C 365.924 614.433 364.615 613.567 363.265 612.811
C 363.1 612.718 362.167 612.104 362.013 612.174
C 361.436 612.436 361.638 614.642 361.638 615.181
C 361.632 618.422 361.528 621.595 361.342 624.819
C 360.946 631.693 359.039 638.392 357.343 645.017
C 356.148 649.689 354.573 654.254 352.378 658.555 Z
M 354.967 489.087
C 353.243 496.992 358.372 503.727 364.185 508.324
C 365.951 509.722 367.736 511.123 369.57 512.431
C 370.181 512.867 370.804 513.286 371.411 513.726
C 371.484 513.779 372.592 514.516 372.275 514.126
C 365.414 507.779 365.239 497.114 371.567 490.278
C 375.319 486.224 380.378 484.161 385.719 483.196
C 398.376 480.912 411.305 486.471 422.374 491.912
C 427.124 494.246 432.329 496.726 436.503 500.006
C 439.913 493.282 444.089 486.906 447.693 480.279
C 454.744 467.315 461.887 454.393 469.139 441.54
C 471.9 436.645 474.676 431.739 477.387 426.817
C 478.02 425.669 480.295 422.882 479.941 421.624
C 477.771 420.652 475.786 419.201 473.764 417.964
C 469.322 424.956 465.65 432.461 461.497 439.639
C 455.221 450.485 448.87 461.334 442.872 472.335
C 440.156 477.317 437.369 482.266 434.598 487.217
C 433.587 489.024 432.559 491.988 430.612 492.959
C 428.765 492.562 426.96 490.646 425.396 489.617
C 422.212 487.522 418.89 485.542 415.492 483.815
C 412.574 482.333 409.622 480.781 406.544 479.66
C 395.956 475.802 385.249 473.187 373.91 474.815
C 367.743 475.7 361.364 478.233 357.575 483.382
C 356.271 485.155 355.721 487.065 354.967 489.087 Z"
opacity="1" fill="rgb(6,6,8)" fill-rule="evenodd" />
<path d="
M 63.976 493.12
C 64.561 490.115 64.081 486.566 64.087 483.499
C 64.099 477.166 64.075 470.833 64.081 464.5
C 64.1 444.499 64.099 424.498 64.119 404.497
C 64.125 397.83 64.142 391.163 64.175 384.495
C 64.191 381.172 63.841 377.618 64.307 374.328
C 67.555 374.422 71.086 374.452 74.332 374.21
C 74.805 375.732 74.388 377.897 74.394 379.502
C 74.41 383.502 74.403 387.503 74.388 391.504
C 74.337 404.503 74.346 417.503 74.364 430.502
C 74.426 477.167 74.372 523.833 74.451 570.498
C 74.467 580.165 74.438 589.833 74.43 599.5
C 74.423 607.497 74.318 615.539 75.566 623.468
C 78.149 639.881 84.442 655.454 94.03 669.028
C 110.484 692.325 137.784 707.327 165.581 712.113
C 177.57 714.178 189.882 713.717 202.001 713.744
C 213.451 713.769 225.056 714.419 236.449 713.095
C 239.384 712.754 242.443 712.478 245.327 711.82
C 247.346 711.36 249.486 710.335 251.54 710.154
C 252.609 710.06 253.589 711.071 254.411 711.652
C 256.338 713.016 258.241 714.448 260.212 715.745
C 260.705 716.069 262.711 717.078 262.335 717.753
C 242.853 725.407 222.051 724.392 201.511 724.46
C 191.91 724.491 182.212 724.834 172.641 723.929
C 163.856 723.099 155.138 721.356 146.662 718.919
C 136.324 715.948 126.018 711.483 116.938 705.699
C 111.057 701.953 105.195 697.953 100.058 693.213
C 80.418 675.095 68.717 650.786 64.939 624.507
C 62.686 608.841 64.362 592.758 64.056 577.004
C 63.827 565.217 64.113 553.411 64.055 541.617
C 63.977 525.464 63.623 509.269 63.976 493.12 Z"
opacity="1" fill="rgb(5,218,244)" fill-rule="evenodd" />
<path d="
M 153.412 418.306
C 153.872 419.893 153.678 421.863 153.668 423.514
C 153.649 426.682 153.692 429.853 153.711 433.021
C 153.775 443.52 153.803 454.018 153.798 464.517
C 153.782 498.183 153.87 531.849 153.862 565.515
C 153.861 572.109 153.878 578.704 153.927 585.298
C 153.956 589.156 153.776 593.077 154.359 596.902
C 155.984 607.561 161.416 617.772 170.092 624.357
C 172.972 626.544 176.092 628.329 179.475 629.616
C 185.598 631.946 191.656 632.191 198.056 632.78
C 203.237 633.329 208.189 634.312 213.405 633.318
C 217.11 632.611 220.815 631.715 224.156 629.911
C 226.757 628.508 229.136 626.871 231.282 624.835
C 240.702 615.894 241.264 603.629 241.255 591.496
C 241.251 585.162 241.243 578.829 241.228 572.495
C 241.066 506.479 241.43 440.462 240.853 374.452
C 244.17 374.006 247.659 374.267 251.005 374.278
C 256.337 374.295 261.67 374.251 267.003 374.271
C 269.002 374.278 271.001 374.291 273 374.26
C 273.639 374.251 274.938 373.987 275.385 374.432
C 275.354 378.107 275.568 381.793 275.546 385.461
C 274.687 386.151 272.374 386.161 271.262 386.51
C 268.686 387.319 266.586 388.724 264.667 390.604
C 255.127 399.952 257.348 415.433 269.552 421.264
C 273.092 422.955 276.617 423.473 280.492 422.876
C 281.975 422.647 283.277 422.135 284.69 421.652
C 284.825 421.606 285.832 421.224 285.931 421.556
C 286.114 422.163 283.933 423.875 283.553 424.327
C 281.211 427.105 278.861 429.854 276.754 432.82
C 269.383 443.198 263.799 455.43 261.346 467.961
C 259.093 479.475 258.229 491.317 259.481 503.012
C 262.066 527.166 273.095 549.839 290.28 566.986
C 303.149 579.827 318.703 589.455 334.914 597.488
C 334.158 604.423 335.009 611.565 334.612 618.537
C 333.979 629.635 331.38 640.731 326.771 650.842
C 326.119 651.223 325.278 650.523 324.645 650.232
C 322.63 649.306 320.644 648.243 318.715 647.152
C 313.543 644.228 308.484 640.975 303.796 637.311
C 301.403 635.44 298.674 632.394 295.567 631.896
C 293.831 633.036 292.808 635.477 291.765 637.222
C 289.549 640.932 287.351 644.653 285.141 648.366
C 277.151 661.79 268.735 674.958 260.768 688.396
C 258.056 692.972 255.188 697.456 252.475 702.031
C 251.533 703.619 250.544 706.233 248.718 706.978
C 243.592 709.068 237.146 709.418 231.683 709.777
C 219.848 710.554 207.866 709.916 196.008 709.949
C 181.153 709.991 166.699 709.455 152.403 705.018
C 142.004 701.79 132.347 697.253 123.126 691.482
C 98.635 676.151 83.079 649.202 79.041 620.979
C 78.097 614.376 78.346 607.655 78.35 601.002
C 78.356 592.168 78.325 583.335 78.345 574.501
C 78.396 552.667 78.298 530.833 78.32 508.999
C 78.349 479.498 78.331 449.997 78.295 420.496
C 78.283 410.331 78.301 400.165 78.326 389.999
C 78.338 384.792 78.062 379.483 78.423 374.29
C 80.66 373.894 83.224 374.257 85.502 374.251
C 90.502 374.239 95.503 374.259 100.503 374.265
C 108.838 374.275 117.173 374.297 125.507 374.332
C 129.549 374.349 133.691 374.093 137.719 374.369
C 138.034 376.654 137.652 379.199 137.683 381.514
C 137.696 382.525 138.049 384.166 137.766 385.104
C 126.919 385.119 119.935 397.302 121.252 406.99
C 122.675 417.455 133.049 425.053 143.414 423.211
C 147.322 422.517 150.339 420.748 153.412 418.306 Z"
opacity="1" fill="rgb(3,220,243)" fill-rule="evenodd" />
<path d="
M 154.532 374.395
C 153.538 375.778 153.985 377.747 153.985 379.352
C 153.984 383.051 152.992 387.499 153.84 391.099
C 150.104 387.97 146.706 385.588 141.639 385.202
C 141.699 382.735 141.706 380.246 141.528 377.784
C 141.456 376.795 141.104 375.061 141.669 374.185
C 145.876 374.338 150.377 373.823 154.532 374.395 Z"
opacity="1" fill="rgb(8,212,238)" fill-rule="evenodd" />
<path d="
M 148.497 356.117
C 149.8 345.034 152.555 334.785 159.009 325.479
C 171.69 307.195 194.068 297.728 216.011 300.502
C 222.058 301.266 228.037 303.345 233.537 305.897
C 249.733 313.411 263.567 329.229 266.887 347.051
C 267.564 350.683 268.121 354.166 268.24 357.873
C 268.284 359.251 268.57 360.793 267.942 362.076
C 266.473 363.378 263.315 362.667 261.497 362.665
C 255.497 362.657 249.497 362.658 243.497 362.658
C 219.829 362.658 196.163 362.603 172.495 362.661
C 166.828 362.674 161.161 362.677 155.494 362.688
C 153.833 362.691 150.557 363.404 149.199 362.306
C 147.656 361.056 148.366 357.853 148.497 356.117 Z
M 152.466 354.612
C 152.281 355.9 151.947 357.727 152.33 358.982
C 158.779 358.355 165.524 358.891 172.004 358.887
C 184.005 358.88 196.005 358.834 208.006 358.84
C 220.172 358.846 232.339 358.923 244.505 358.885
C 251.047 358.864 257.895 358.3 264.406 358.897
C 264.252 352.229 263.052 345.323 260.442 339.155
C 248.271 310.393 213.726 295.468 184.899 308.664
C 171.965 314.585 161.077 325.865 156.008 339.184
C 154.61 342.859 153.64 346.659 152.954 350.525
C 152.715 351.874 152.8 353.283 152.466 354.612 Z"
opacity="1" fill="rgb(5,4,4)" fill-rule="evenodd" />
<path d="
M 153.84 391.099
C 152.992 387.499 153.984 383.051 153.985 379.352
C 153.985 377.747 153.538 375.778 154.532 374.395
C 158.796 374.341 163.061 374.437 167.326 374.419
C 168.007 374.417 170.909 373.993 171.295 374.561
C 170.665 382.118 171.166 389.922 171.161 397.505
C 171.151 411.673 171.079 425.839 171.127 440.007
C 171.261 479.339 171.201 518.674 171.23 558.006
C 171.237 567.006 171.241 576.006 171.23 585.006
C 171.224 590.47 170.848 596.038 171.623 601.464
C 172.765 609.464 176.262 616.978 181.807 622.853
C 184.839 626.066 188.776 628.732 192.712 630.712
C 194.421 631.572 196.397 631.861 198.056 632.78
C 191.656 632.191 185.598 631.946 179.475 629.616
C 176.092 628.329 172.972 626.544 170.092 624.357
C 161.416 617.772 155.984 607.561 154.359 596.902
C 153.776 593.077 153.956 589.156 153.927 585.298
C 153.878 578.704 153.861 572.109 153.862 565.515
C 153.87 531.849 153.782 498.183 153.798 464.517
C 153.803 454.018 153.775 443.52 153.711 433.021
C 153.692 429.853 153.649 426.682 153.668 423.514
C 153.678 421.863 153.872 419.893 153.412 418.306
C 154.644 416.205 156.506 414.656 157.568 412.383
C 161.216 404.577 158.898 397.525 153.84 391.099 Z"
opacity="1" fill="rgb(250,223,6)" fill-rule="evenodd" />
<path d="
M 310.03 578.537
C 309.197 576.662 309.035 574.07 308.918 572.031
C 308.617 566.83 309.129 561.841 310.246 556.767
C 312.17 548.023 316.38 539.433 322.495 532.856
C 335.087 519.315 355.803 513.36 373.652 518.729
C 375.412 519.3 377.023 520.465 378.679 521.287
C 384.102 523.979 389.45 526.756 394.794 529.603
C 409.787 537.589 424.4 546.058 439.092 554.572
C 454.952 563.762 469.057 577.127 477.853 593.313
C 494.013 623.05 492.823 661.97 475.762 691.082
C 469.956 700.989 462.255 709.628 453.474 716.992
C 441.884 726.713 428.412 733.17 414.125 737.881
C 374.172 751.056 328.831 747.156 290.932 729.359
C 282.462 725.382 274.486 720.676 266.637 715.602
C 262.403 712.865 257.608 710.082 254.031 706.508
C 262.585 691.479 272.236 677 281.077 662.122
C 284.348 656.619 287.711 651.172 290.972 645.663
C 292.764 642.636 294.474 639.097 296.853 636.493
C 315.356 651.409 338.675 664.017 363.048 664.066
C 367.483 664.075 372.636 663.305 376.615 661.252
C 384.078 657.401 389.037 649.564 389.014 641.128
C 389.001 636.353 387.461 631.865 385.377 627.624
C 380.948 618.608 371.044 612.867 362.606 608.206
C 351.447 602.042 340.2 596.031 328.923 590.083
C 322.708 586.806 315.013 583.624 310.03 578.537 Z"
opacity="1" fill="rgb(249,1,3)" fill-rule="evenodd" />
<path d="
M 373.652 518.729
C 355.803 513.36 335.087 519.315 322.495 532.856
C 316.38 539.433 312.17 548.023 310.246 556.767
C 309.129 561.841 308.617 566.83 308.918 572.031
C 309.035 574.07 309.197 576.662 310.03 578.537
C 307.329 577.615 304.712 574.645 302.47 572.907
C 295.054 567.159 288.419 560.146 282.79 552.658
C 262.153 525.21 256.816 486.86 269.07 454.749
C 273.94 441.989 282.19 430.337 291.704 420.619
C 302.861 409.224 317.847 401.173 332.851 396.205
C 351.384 390.069 371.084 386.929 390.631 388.347
C 419.383 390.432 446.102 401.377 470.544 416.126
C 469.678 418.112 468.302 419.892 467.267 421.795
C 464.587 426.722 461.837 431.622 459.025 436.475
C 452.372 447.962 446.24 459.754 439.434 471.154
C 436.854 475.476 434.468 479.925 432.026 484.324
C 431.456 485.352 430.927 486.39 430.423 487.45
C 430.343 487.619 430.111 488.311 429.873 488.218
C 426.364 485.604 422.52 483.387 418.681 481.294
C 405.142 473.911 388.658 468.296 373.042 471.099
C 367.264 472.137 361.627 474.102 357.239 478.131
C 349.436 485.298 348.972 497.394 355.667 505.498
C 359.023 509.56 363.282 512.568 367.749 515.297
C 369.635 516.449 371.95 517.338 373.652 518.729 Z"
opacity="1" fill="rgb(250,222,4)" fill-rule="evenodd" />
<path d="
M 279.299 374.217
C 286.098 373.623 293.172 374.222 300.001 374.223
C 316.069 374.227 332.158 374.488 348.223 374.288
C 347.913 377.34 348.249 380.668 348.321 383.744
C 348.35 384.968 348.725 386.702 348.307 387.849
C 344.298 389.245 340.005 389.917 335.947 391.197
C 327.29 393.929 318.91 397.269 310.971 401.706
C 306.539 404.183 302.434 407.097 298.363 410.111
C 297.731 410.58 294.837 413.504 294.139 413.18
C 294.878 410.01 296.579 407.423 296.613 404.014
C 296.698 395.462 288.722 384.609 279.257 385.634
C 279.195 381.831 279.192 378.019 279.299 374.217 Z"
opacity="1" fill="rgb(5,217,240)" fill-rule="evenodd" />
<path d="
M 354.967 489.087
C 355.721 487.065 356.271 485.155 357.575 483.382
C 361.364 478.233 367.743 475.7 373.91 474.815
C 385.249 473.187 395.956 475.802 406.544 479.66
C 409.622 480.781 412.574 482.333 415.492 483.815
C 418.89 485.542 422.212 487.522 425.396 489.617
C 426.96 490.646 428.765 492.562 430.612 492.959
C 432.559 491.988 433.587 489.024 434.598 487.217
C 437.369 482.266 440.156 477.317 442.872 472.335
C 448.87 461.334 455.221 450.485 461.497 439.639
C 465.65 432.461 469.322 424.956 473.764 417.964
C 475.786 419.201 477.771 420.652 479.941 421.624
C 480.295 422.882 478.02 425.669 477.387 426.817
C 474.676 431.739 471.9 436.645 469.139 441.54
C 461.887 454.393 454.744 467.315 447.693 480.279
C 444.089 486.906 439.913 493.282 436.503 500.006
C 432.329 496.726 427.124 494.246 422.374 491.912
C 411.305 486.471 398.376 480.912 385.719 483.196
C 380.378 484.161 375.319 486.224 371.567 490.278
C 365.239 497.114 365.414 507.779 372.275 514.126
C 372.592 514.516 371.484 513.779 371.411 513.726
C 370.804 513.286 370.181 512.867 369.57 512.431
C 367.736 511.123 365.951 509.722 364.185 508.324
C 358.372 503.727 353.243 496.992 354.967 489.087 Z"
opacity="1" fill="rgb(246,219,21)" fill-rule="evenodd" />
<path d="
M 504.244 466.727
C 508.162 466.695 512.082 466.751 516.002 466.761
C 517.947 466.767 520.24 466.406 522.134 466.834
C 521.691 479.54 522.043 492.294 522.111 505.007
C 522.146 511.45 521.253 519.132 523.851 525.199
C 524.92 527.694 526.436 530.176 528.737 531.708
C 536.091 536.603 548.532 534.372 552.735 526.386
C 555.243 521.621 554.431 515.646 554.422 510.439
C 554.406 500.517 554.506 490.594 554.438 480.673
C 554.415 477.349 554.536 474.032 554.555 470.709
C 554.562 469.437 554.193 467.743 554.786 466.611
C 560.589 466.413 566.459 466.522 572.262 466.684
C 572.023 471.588 572.306 476.592 572.315 481.507
C 572.333 490.675 572.269 499.842 572.309 509.01
C 572.347 517.615 572.991 526.375 568.715 534.208
C 559.526 551.039 533.847 554.4 518.166 544.97
C 513.393 542.1 509.788 537.544 507.504 532.517
C 503.939 524.674 504.231 516.306 504.263 507.89
C 504.296 498.925 504.238 489.96 504.253 480.995
C 504.261 476.293 504.72 471.405 504.244 466.727 Z"
opacity="1" fill="rgb(3,218,245)" fill-rule="evenodd" />
<path d="
M 584.724 489.263
C 587.953 488.961 591.266 489.154 594.51 489.162
C 596.514 489.167 598.742 488.941 600.715 489.274
C 600.762 491.024 601.244 492.728 601.479 494.454
C 603.794 493.718 605.8 491.358 607.958 490.181
C 610.741 488.663 614.041 488.33 617.134 487.962
C 619.461 487.684 621.868 488.138 624.142 488.583
C 626.072 488.96 627.86 489.528 629.604 490.445
C 641.947 496.94 639.179 513.42 639.242 525.012
C 639.263 529.011 639.289 533.01 639.316 537.008
C 639.341 540.602 638.794 544.653 639.338 548.191
C 633.716 548.491 628.024 547.861 622.397 548.01
C 621.671 545.081 622.239 541.415 622.244 538.4
C 622.257 531.766 622.272 525.131 622.271 518.496
C 622.27 514.641 622.897 510.014 620.853 506.552
C 616.848 499.769 604.685 502.567 602.065 509.14
C 600.697 512.573 601.667 517.854 601.689 521.509
C 601.726 527.508 601.69 533.508 601.675 539.507
C 601.668 542.367 601.404 545.363 601.672 548.207
C 600.558 547.748 598.322 548.182 597.07 548.172
C 593.265 548.139 588.429 548.792 584.752 547.878
C 584.364 540.628 584.662 533.261 584.655 525.998
C 584.643 513.754 584.564 501.504 584.724 489.263 Z"
opacity="1" fill="rgb(6,217,243)" fill-rule="evenodd" />
<path d="
M 651.46 466.618
C 651.537 465.953 651.522 466.359 651.393 465.401
C 657.043 465.044 662.78 465.822 668.443 465.581
C 669.052 466.566 668.706 468.842 668.725 470.011
C 668.788 473.766 668.65 477.519 668.661 481.269
C 667.085 481.86 664.676 481.469 663.005 481.453
C 659.173 481.415 655.33 481.328 651.499 481.363
C 650.955 480.252 651.396 478.242 651.401 476.996
C 651.416 473.543 651.338 470.069 651.46 466.618 Z"
opacity="1" fill="rgb(5,221,244)" fill-rule="evenodd" />
<path d="
M 651.267 489.362
C 654.836 489.472 658.435 489.438 662.007 489.398
C 663.978 489.377 666.262 489.078 668.19 489.488
C 668.847 494.282 668.315 499.653 668.332 504.506
C 668.368 515.173 668.224 525.838 668.339 536.504
C 668.379 540.251 667.96 544.294 668.48 547.999
C 668.297 548.506 665.159 548.146 664.528 548.134
C 661.583 548.075 658.632 547.992 655.688 547.902
C 654.398 547.863 652.909 548.109 651.655 547.822
C 650.337 528.407 652.752 508.759 651.267 489.362 Z"
opacity="1" fill="rgb(5,220,241)" fill-rule="evenodd" />
<path d="
M 680.471 487.599
C 681.218 483.16 682.335 479.086 685.076 475.418
C 693.618 463.984 712.241 463.869 724.865 466.548
C 728.903 467.404 732.915 468.523 736.719 470.143
C 738.161 470.757 740.128 471.383 741.097 472.7
C 741.922 473.821 741.354 476.184 741.311 477.502
C 741.207 480.662 741.213 483.835 741.229 486.997
C 741.235 488.173 741.629 489.665 741.271 490.796
C 731.608 484.321 720.751 480.241 708.894 481.228
C 703.602 481.669 697.073 484.503 698.483 491.014
C 698.697 491.999 699.179 492.821 699.807 493.597
C 703.028 497.582 710.416 498.34 715.131 499.117
C 725.994 500.905 739.896 503.646 744.086 515.377
C 747.75 525.638 745.02 537.073 736.132 543.711
C 733.115 545.964 729.316 547.126 725.734 548.149
C 722.504 549.071 718.969 549.325 715.626 549.502
C 704.174 550.108 691.631 547.595 681.725 541.729
C 680.975 540.699 681.592 537.942 681.584 536.658
C 681.559 532.585 682.11 527.808 680.928 523.866
C 681.385 523.01 682.77 524.426 683.602 524.918
C 686.345 526.545 689.184 528.218 692.117 529.479
C 700.027 532.88 709.576 534.884 718.158 533.15
C 721.732 532.428 726.158 531.301 727.462 527.411
C 728.529 524.226 726.897 521.078 724.193 519.365
C 720.418 516.974 715.902 516.6 711.612 515.916
C 698.929 513.896 682.641 510.13 680.661 494.949
C 680.344 492.515 680.181 490.047 680.471 487.599 Z"
opacity="1" fill="rgb(0,0,1)" fill-rule="evenodd" />
<path d="
M 752.472 514.095
C 753.942 507.963 755.262 501.793 759.64 496.939
C 769.722 485.762 790.178 484.761 800.838 495.662
C 805.529 500.459 808.466 507.301 809.33 513.921
C 809.782 517.383 809.648 520.916 809.824 524.384
C 800.123 523.843 790.224 524.297 780.499 524.273
C 776.644 524.264 772.383 524.731 768.586 524.182
C 769.336 527.342 770.439 530.991 772.926 533.237
C 777.013 536.926 785.188 537.387 789.858 534.521
C 791.234 533.677 792.18 532.319 793.116 531.038
C 794.769 530.704 796.816 531.222 798.508 531.264
C 801.898 531.348 805.329 531.019 808.703 531.272
C 809.247 532.316 806.974 535.338 806.429 536.366
C 803.286 542.287 798.058 546.413 791.665 548.361
C 781.426 551.479 767.823 549.383 760.177 541.434
C 753.467 534.459 750.907 523.491 752.472 514.095 Z
M 768.963 512.609
C 768.847 513.385 768.884 513.04 768.833 513.641
C 773.141 513.139 777.671 513.431 782.005 513.425
C 785.548 513.421 789.282 513.099 792.797 513.597
C 792.594 510.213 791.674 506.92 789.156 504.499
C 784.884 500.393 777.097 500.596 772.83 504.491
C 770.547 506.575 769.509 509.662 768.963 512.609 Z"
opacity="1" fill="rgb(0,0,1)" fill-rule="evenodd" />
<path d="
M 817.598 489.656
C 823.059 489.441 828.543 489.704 833.999 489.467
C 834.01 491.74 834.295 494.006 834.062 496.28
C 833.974 496.467 835.297 495.001 835.615 494.627
C 836.692 493.36 837.885 492.227 839.308 491.355
C 843.678 488.679 849.086 487.263 854.161 488.83
C 854.904 489.412 854.454 491.965 854.456 492.913
C 854.462 496.667 854.367 500.631 854.793 504.357
C 847.874 503.304 838.33 503.487 834.9 511.061
C 834.402 512.161 834.548 513.583 834.562 514.761
C 834.591 517.175 834.629 519.587 834.641 522
C 834.685 530.586 834.22 539.36 834.815 547.922
C 833.484 548.396 831.089 547.917 829.629 547.911
C 825.644 547.895 821.643 547.967 817.665 548.192
C 817.245 541.559 817.764 534.675 817.754 528.01
C 817.736 515.231 817.509 502.43 817.598 489.656 Z"
opacity="1" fill="rgb(0,0,1)" fill-rule="evenodd" />
<path d="
M 857.248 489.871
C 862.753 488.524 869.07 489.609 874.718 489.219
C 878.606 503.063 884.328 516.401 887.679 530.4
C 888.338 530.46 888.598 528.819 888.782 528.237
C 889.563 525.77 890.245 523.266 890.995 520.786
C 894.176 510.277 898.004 499.927 900.849 489.324
C 904.975 489.402 909.111 489.43 913.239 489.385
C 914.565 489.37 917.116 488.856 918.299 489.457
C 917.201 493.553 915.441 497.537 913.995 501.523
C 909.743 513.237 905.323 524.892 901.304 536.69
C 899.996 540.53 898.287 544.349 897.26 548.272
C 893.243 548.596 889.035 548.238 884.997 548.244
C 882.896 548.247 880.221 548.708 878.192 548.262
C 873.768 534.647 868.476 521.264 863.604 507.802
C 862.217 503.969 860.945 500.085 859.516 496.27
C 858.731 494.172 857.67 492.067 857.248 489.871 Z"
opacity="1" fill="rgb(0,0,1)" fill-rule="evenodd" />
<path d="
M 920.476 518.117
C 921.324 511.992 921.826 506.36 925.016 500.86
C 931.598 489.51 946.255 485.82 958.35 489.136
C 970.314 492.416 976.529 503.606 977.337 515.373
C 977.504 517.807 978.553 522.13 977.406 524.325
C 967.655 523.784 957.771 524.261 948.003 524.166
C 945.258 524.139 942.487 524.029 939.743 524.12
C 938.899 524.148 937.601 524.553 936.822 524.185
C 937.705 527.21 938.486 530.744 940.867 533.021
C 944.718 536.704 952.228 537.323 956.821 534.767
C 958.511 533.827 959.542 532.526 960.832 531.144
C 964.037 531.357 967.292 531.485 970.504 531.404
C 972.401 531.357 974.474 531.014 976.346 531.34
C 976.545 533.755 974.485 536.483 973.196 538.389
C 968.349 545.55 960.211 549.103 951.78 549.726
C 944.554 550.259 936.255 548.045 930.616 543.426
C 923.319 537.451 919.781 527.412 920.476 518.117 Z
M 937.479 511.605
C 937.407 512.221 937.195 512.942 937.563 513.461
C 945.256 512.586 953.549 513.267 961.271 513.656
C 961.341 512.898 960.97 511.959 960.846 511.212
C 959.585 503.582 951.628 499.129 944.403 502.319
C 940.388 504.092 938.781 507.716 937.479 511.605 Z"
opacity="1" fill="rgb(0,0,1)" fill-rule="evenodd" />

</svg>